<?xml version="1.0" standalone="no"?>
<svg version="1.0" xmlns="http://www.w3.org/2000/svg"
 width="920.000000pt" height="920.000000pt" viewBox="0 0 920.000000 920.000000"
 preserveAspectRatio="xMidYMid meet">

<g transform="translate(0.000000,920.000000) scale(0.100000,-0.100000)"
fill="#000000" stroke="none">
<path d="M4355 9194 c-651 -42 -1247 -200 -1808 -480 -885 -442 -1615 -1171
-2056 -2052 -256 -511 -401 -1010 -468 -1604 -21 -190 -24 -682 -5 -868 63
-616 209 -1124 474 -1653 542 -1084 1518 -1927 2668 -2304 320 -105 624 -170
982 -209 192 -22 685 -25 868 -6 617 64 1125 209 1652 473 1328 665 2264 1952
2483 3413 41 277 49 389 49 701 0 330 -12 475 -65 788 -104 622 -364 1260
-727 1792 -443 648 -1047 1177 -1739 1524 -516 258 -1013 403 -1593 466 -140
15 -591 27 -715 19z m505 -824 c1039 -72 1984 -559 2657 -1370 463 -558 758
-1253 840 -1982 23 -208 23 -625 0 -836 -80 -711 -366 -1395 -816 -1952 -489
-604 -1158 -1050 -1891 -1259 -218 -63 -429 -105 -630 -128 -211 -23 -627 -23
-838 0 -499 56 -996 217 -1437 465 -129 72 -381 243 -498 337 -691 557 -1148
1292 -1342 2160 -111 496 -111 1094 0 1590 205 918 710 1696 1459 2249 716
529 1604 788 2496 726z"/>
<path d="M4515 7150 c-183 -40 -313 -165 -360 -347 -13 -49 -15 -185 -15 -900
l0 -843 -834 0 c-525 0 -853 -4 -887 -10 -159 -30 -296 -147 -351 -298 -29
-80 -29 -224 0 -304 55 -151 192 -268 351 -298 34 -6 362 -10 887 -10 l834 0
0 -837 c0 -704 3 -848 15 -901 37 -157 139 -274 290 -332 82 -32 224 -32 307
-2 151 55 268 192 298 351 6 34 10 362 10 887 l0 834 834 0 c525 0 853 4 887
10 159 30 296 147 351 298 29 80 29 224 0 304 -54 149 -187 264 -340 297 -37
8 -312 11 -892 11 l-840 0 0 838 c0 908 0 904 -56 1013 -50 99 -147 184 -252
220 -66 23 -179 32 -237 19z"/>
</g>
</svg>
